<?xml version="1.0" encoding="utf-8"?>
<!-- Generator: Adobe Illustrator 16.0.0, SVG Export Plug-In . SVG Version: 6.00 Build 0)  -->
<!DOCTYPE svg PUBLIC "-//W3C//DTD SVG 1.1//EN" "http://www.w3.org/Graphics/SVG/1.1/DTD/svg11.dtd">
<svg version="1.1" id="Pencil" xmlns="http://www.w3.org/2000/svg" xmlns:xlink="http://www.w3.org/1999/xlink" x="0px" y="0px"
	 width="139px" height="139px" fill="white" viewBox="0 0 139 139" enable-background="new 0 0 139 139" xml:space="preserve">
<path d="M100.613,47.224l-8.835-8.833c-0.879-0.881-2.049-1.367-3.294-1.368c-0.002,0-0.003,0-0.004,0
	c-1.243,0-2.412,0.483-3.293,1.363L41.309,82.266c-0.484,0.409-0.85,0.965-0.998,1.63l-3.217,14.428
	c-0.223,1.002,0.081,2.049,0.807,2.774c0.568,0.569,1.334,0.879,2.121,0.879c0.217,0,0.436-0.023,0.653-0.072l14.429-3.217
	c0.669-0.149,1.227-0.519,1.636-1.006l43.873-43.872C102.429,51.994,102.429,49.04,100.613,47.224z M79.694,52.365l6.939,6.938
	L59.613,86.324l-6.938-6.938L79.694,52.365z M45.969,86.091l2.463-2.463l6.938,6.938l-2.465,2.465l-8.927,1.99L45.969,86.091z
	 M90.876,55.061l-6.939-6.939l4.544-4.543l6.94,6.938L90.876,55.061z"/>
</svg>
