<?xml version="1.0" encoding="utf-8"?>
<!-- Generator: Adobe Illustrator 16.0.0, SVG Export Plug-In . SVG Version: 6.00 Build 0)  -->
<!DOCTYPE svg PUBLIC "-//W3C//DTD SVG 1.1//EN" "http://www.w3.org/Graphics/SVG/1.1/DTD/svg11.dtd">
<svg version="1.1" id="Documents" xmlns="http://www.w3.org/2000/svg" xmlns:xlink="http://www.w3.org/1999/xlink" x="0px" y="0px"
	 width="139px" fill="#fff" height="139px" viewBox="0 0 139 139" enable-background="new 0 0 139 139" xml:space="preserve">
<path d="M96.59,25.562H58.817c-5.521,0-10.012,4.484-10.026,10.001h-2.975c-7.183,0-13.027,5.844-13.027,13.027v51.826
	c0,7.184,5.844,13.027,13.027,13.027h37.772c7.183,0,13.026-5.844,13.026-13.027v-2.975c5.517-0.015,10.001-4.506,10.001-10.026
	V35.589C106.616,30.06,102.118,25.562,96.59,25.562z M90.615,55.616V93.39v7.026c0,3.881-3.146,7.027-7.026,7.027H45.816
	c-3.882,0-7.027-3.146-7.027-7.027V48.59c0-3.881,3.146-7.027,7.027-7.027h37.772c3.88,0,7.026,3.146,7.026,7.027V55.616z
	 M100.616,87.415c0,2.212-1.793,4.011-4.001,4.024V55.616V48.59c0-7.183-5.844-13.027-13.026-13.027H54.793
	c0.014-2.208,1.813-4.001,4.024-4.001H96.59c2.22,0,4.026,1.807,4.026,4.027V87.415z"/>
<rect x="46.702" y="52.875" width="36" height="6"/>
<rect x="46.702" y="65.749" width="36" height="6"/>
<rect x="46.702" y="78.623" width="36" height="6"/>
<rect x="46.702" y="91.497" width="36" height="6"/>
</svg>
