<?xml version="1.0" encoding="utf-8"?>
<!-- Generator: Adobe Illustrator 16.0.0, SVG Export Plug-In . SVG Version: 6.00 Build 0)  -->
<!DOCTYPE svg PUBLIC "-//W3C//DTD SVG 1.1//EN" "http://www.w3.org/Graphics/SVG/1.1/DTD/svg11.dtd">
<svg version="1.1" id="Export" xmlns="http://www.w3.org/2000/svg" xmlns:xlink="http://www.w3.org/1999/xlink" x="0px" y="0px"
	 width="139px" height="139px" fill="white" viewBox="0 0 139 139" enable-background="new 0 0 139 139" xml:space="preserve">
<path d="M88.612,62.906H78.5v6h10.112c3.007,0,5.34,1.536,5.34,2.858v26.606c0,1.322-2.333,2.858-5.34,2.858H50.39
	c-3.007,0-5.34-1.536-5.34-2.858V71.765c0-1.322,2.333-2.858,5.34-2.858H60.5v-6H50.39c-6.359,0-11.34,3.891-11.34,8.858v26.606
	c0,4.968,4.981,8.858,11.34,8.858h38.223c6.358,0,11.34-3.891,11.34-8.858V71.765C99.952,66.797,94.971,62.906,88.612,62.906z"/>
<path d="M60.623,54.513c0.768,0,1.535-0.293,2.121-0.879l3.756-3.756v13.028v6V80.4c0,1.657,1.343,3,3,3s3-1.343,3-3V68.906v-6
	V49.675l3.959,3.959c0.586,0.586,1.354,0.879,2.121,0.879s1.535-0.293,2.121-0.879c1.172-1.171,1.172-3.071,0-4.242l-8.957-8.957
	c-0.586-0.586-1.353-0.877-2.12-0.877c-0.008,0-0.015,0-0.023,0s-0.015,0-0.023,0c-0.767,0-1.534,0.291-2.12,0.877l-8.957,8.957
	c-1.172,1.171-1.172,3.071,0,4.242C59.088,54.22,59.855,54.513,60.623,54.513z"/>
</svg>
