<?xml version="1.0" encoding="utf-8"?>
<!-- Generator: Adobe Illustrator 16.0.0, SVG Export Plug-In . SVG Version: 6.00 Build 0)  -->
<!DOCTYPE svg PUBLIC "-//W3C//DTD SVG 1.1//EN" "http://www.w3.org/Graphics/SVG/1.1/DTD/svg11.dtd">
<svg version="1.1" id="Export" xmlns="http://www.w3.org/2000/svg" xmlns:xlink="http://www.w3.org/1999/xlink" x="0px" y="0px"
	 width="139px" height="139px" fill="white" viewBox="0 0 139 139" enable-background="new 0 0 139 139" xml:space="preserve">
<path d="M88.611,62.906H78.5v6h10.111c3.008,0,5.341,1.535,5.341,2.857V98.37c0,1.321-2.333,2.858-5.341,2.858H50.39
	c-3.007,0-5.34-1.537-5.34-2.858V71.766c0-1.322,2.333-2.858,5.34-2.858H60.5v-6H50.39c-6.359,0-11.34,3.891-11.34,8.858v26.605
	c0,4.968,4.981,8.857,11.34,8.857h38.223c6.357,0,11.34-3.891,11.34-8.857V71.766C99.952,66.797,94.971,62.906,88.611,62.906z"/>
<path d="M78.579,75.446c-0.768,0-1.535,0.294-2.121,0.88l-3.756,3.755V67.054v-6V49.559c0-1.656-1.343-3-3-3s-3,1.344-3,3v11.494v6
	v13.23l-3.959-3.958c-0.586-0.586-1.354-0.88-2.121-0.88s-1.535,0.294-2.121,0.88c-1.172,1.17-1.172,3.07,0,4.241l8.957,8.957
	c0.586,0.586,1.354,0.877,2.12,0.877c0.008,0,0.016,0,0.023,0s0.015,0,0.022,0c0.768,0,1.534-0.291,2.12-0.877l8.957-8.957
	c1.172-1.171,1.172-3.071,0-4.241C80.114,75.74,79.348,75.446,78.579,75.446z"/>
</svg>
