<?xml version="1.0" encoding="utf-8"?>
<!-- Generator: Adobe Illustrator 16.0.0, SVG Export Plug-In . SVG Version: 6.00 Build 0)  -->
<!DOCTYPE svg PUBLIC "-//W3C//DTD SVG 1.1//EN" "http://www.w3.org/Graphics/SVG/1.1/DTD/svg11.dtd">
<svg version="1.1" id="Find" xmlns="http://www.w3.org/2000/svg" xmlns:xlink="http://www.w3.org/1999/xlink" x="0px" y="0px"
	 width="139px" fill="#999B9F" height="139px" viewBox="0 0 139 139" enable-background="new 0 0 139 139" xml:space="preserve">
<path d="M101.828,86.106L91.592,75.87c1.479-3.56,2.248-7.387,2.248-11.282c0-16.222-13.198-29.42-29.421-29.42
	c-16.222,0-29.42,13.198-29.42,29.42c0,16.223,13.198,29.421,29.42,29.421c4.318,0,8.518-0.932,12.37-2.724l9.931,9.932
	c2.019,2.019,4.701,3.13,7.556,3.13c2.855,0,5.539-1.112,7.557-3.132c2.016-2.015,3.127-4.698,3.127-7.553
	C104.959,90.809,103.848,88.125,101.828,86.106z M97.587,96.975c-0.914,0.915-2.113,1.372-3.312,1.372s-2.397-0.457-3.313-1.372
	L77.797,83.808c-3.794,2.646-8.403,4.201-13.378,4.201c-12.935,0-23.42-10.486-23.42-23.421s10.485-23.42,23.42-23.42
	S87.84,51.653,87.84,64.588c0,4.57-1.314,8.832-3.578,12.438l13.325,13.325C99.417,92.18,99.417,95.146,97.587,96.975z"/>
<path d="M64.419,47.838c-9.235,0-16.749,7.514-16.749,16.75c0,9.236,7.514,16.75,16.749,16.75c9.236,0,16.75-7.514,16.75-16.75
	C81.169,55.352,73.655,47.838,64.419,47.838z M64.419,75.338c-5.927,0-10.749-4.822-10.749-10.75s4.822-10.75,10.749-10.75
	c5.928,0,10.75,4.822,10.75,10.75S70.347,75.338,64.419,75.338z"/>
</svg>
