<?xml version="1.0" encoding="utf-8"?>
<!-- Generator: Adobe Illustrator 16.0.0, SVG Export Plug-In . SVG Version: 6.00 Build 0)  -->
<!DOCTYPE svg PUBLIC "-//W3C//DTD SVG 1.1//EN" "http://www.w3.org/Graphics/SVG/1.1/DTD/svg11.dtd">
<svg version="1.1" id="Group_x5F_friend" xmlns="http://www.w3.org/2000/svg" xmlns:xlink="http://www.w3.org/1999/xlink" x="0px"
	 y="0px" width="139px" fill="white" height="139px" viewBox="0 0 139 139" enable-background="new 0 0 139 139" xml:space="preserve">
<path d="M101.05,67.105c3.503-4.197,5.57-9.918,5.57-16.019c0-12.607-8.761-22.864-19.529-22.864c-7.47,0-13.968,4.939-17.25,12.172
	c-3.282-7.233-9.78-12.172-17.25-12.172c-10.769,0-19.529,10.257-19.529,22.864c0,6.115,2.065,11.827,5.569,16.018
	c-6.125,2.88-16.921,8.281-16.921,24.543v6h6h12.421c-0.737,2.447-1.173,5.255-1.173,8.501v6h6h24.704h0.353h24.704h6v-6
	c0-3.246-0.436-6.054-1.173-8.501h12.425h6v-6C117.971,75.386,107.175,69.986,101.05,67.105z M42.931,91.647H27.71
	c0-18.067,15.867-18.062,19.388-22.786l0.403-2.154c-4.947-2.508-8.439-8.551-8.439-15.621c0-9.313,6.058-16.864,13.529-16.864
	c5.292,0,9.86,3.798,12.081,9.319C56.404,46.201,50.31,55.074,50.31,65.587c0,6.115,2.065,11.827,5.569,16.017
	C52.129,83.368,46.633,86.081,42.931,91.647z M70.015,106.148h-0.353H44.958c0-18.066,15.867-18.062,19.388-22.786l0.403-2.154
	c-4.947-2.508-8.439-8.551-8.439-15.621c0-9.313,6.058-16.864,13.529-16.864s13.529,7.551,13.529,16.864
	c0,7.008-3.43,13.015-8.311,15.561l0.459,2.449c3.863,4.495,19.202,4.788,19.202,22.551H70.015z M96.746,91.647
	c-3.702-5.565-9.199-8.278-12.948-10.041c3.503-4.197,5.57-9.918,5.57-16.019c0-10.512-6.093-19.384-14.359-22.045
	c2.221-5.522,6.79-9.32,12.082-9.32c7.472,0,13.529,7.551,13.529,16.864c0,7.009-3.43,13.015-8.311,15.562l0.459,2.449
	c3.863,4.495,19.202,4.788,19.202,22.55H96.746z"/>
</svg>
