<?xml version="1.0" encoding="utf-8"?>
<!-- Generator: Adobe Illustrator 16.0.0, SVG Export Plug-In . SVG Version: 6.00 Build 0)  -->
<!DOCTYPE svg PUBLIC "-//W3C//DTD SVG 1.1//EN" "http://www.w3.org/Graphics/SVG/1.1/DTD/svg11.dtd">
<svg version="1.1" id="Chat" xmlns="http://www.w3.org/2000/svg" xmlns:xlink="http://www.w3.org/1999/xlink" x="0px" y="0px"
	 width="139px" height="139px" fill="#fff" viewBox="0 0 139 139" enable-background="new 0 0 139 139" xml:space="preserve">
<path d="M69.294,34.999c-22.24,0-40.333,15.925-40.333,35.5c0,7.884,2.997,15.567,8.465,21.768
	c-0.145,3.093-1.384,5.764-3.693,7.951l-3.586,3.396l4.668,1.616c1.472,0.51,3.032,0.768,4.638,0.768
	c4.803,0,9.068-2.315,11.437-3.911c5.675,2.563,11.998,3.91,18.405,3.91c22.24,0,40.334-15.925,40.334-35.498
	C109.628,50.924,91.534,34.999,69.294,34.999z M69.294,99.997c-6.109,0-12.116-1.406-17.372-4.065l-1.723-0.872l-1.507,1.207
	c-0.654,0.523-3.659,2.805-7.19,3.518c1.65-3.183,2.006-6.341,1.928-8.771l-0.037-1.136l-0.78-0.826
	c-5.006-5.306-7.653-11.722-7.653-18.553c0-16.266,15.402-29.5,34.333-29.5c18.932,0,34.334,13.234,34.334,29.5
	C103.628,86.765,88.226,99.997,69.294,99.997z"/>
</svg>
