<?xml version="1.0" encoding="utf-8"?>
<!-- Generator: Adobe Illustrator 16.0.0, SVG Export Plug-In . SVG Version: 6.00 Build 0)  -->
<!DOCTYPE svg PUBLIC "-//W3C//DTD SVG 1.1//EN" "http://www.w3.org/Graphics/SVG/1.1/DTD/svg11.dtd">
<svg version="1.1" id="Play" xmlns="http://www.w3.org/2000/svg" xmlns:xlink="http://www.w3.org/1999/xlink" x="0px" y="0px"
	 width="139px" fill="#fff" height="139px" viewBox="0 0 139 139" enable-background="new 0 0 139 139" xml:space="preserve">
<path d="M92.848,64.058L52.831,40.957c-1.907-1.1-4.376-1.097-6.276,0c-1.938,1.116-3.143,3.201-3.143,5.44v46.205
	c0,2.24,1.204,4.325,3.131,5.435c0.953,0.555,2.042,0.848,3.149,0.848c1.104,0,2.192-0.292,3.141-0.843L92.85,74.939
	c1.936-1.119,3.138-3.203,3.138-5.439C95.987,67.267,94.786,65.183,92.848,64.058z M89.848,69.745l-40.02,23.104
	c-0.082,0.047-0.18,0.052-0.279-0.005c-0.084-0.049-0.137-0.142-0.137-0.242V46.396c0-0.1,0.052-0.192,0.14-0.243
	c0.042-0.025,0.09-0.038,0.139-0.038c0.051,0,0.099,0.013,0.142,0.038l40.01,23.098c0.089,0.052,0.145,0.147,0.145,0.249
	C89.987,69.603,89.935,69.694,89.848,69.745z"/>
</svg>
