<?xml version="1.0" encoding="utf-8"?>
<!-- Generator: Adobe Illustrator 16.0.0, SVG Export Plug-In . SVG Version: 6.00 Build 0)  -->
<!DOCTYPE svg PUBLIC "-//W3C//DTD SVG 1.1//EN" "http://www.w3.org/Graphics/SVG/1.1/DTD/svg11.dtd">
<svg version="1.1" id="Setting" xmlns="http://www.w3.org/2000/svg" xmlns:xlink="http://www.w3.org/1999/xlink" x="0px" y="0px"
	 width="139px" fill="#fff" height="139px" viewBox="0 0 139 139" enable-background="new 0 0 139 139" xml:space="preserve">
<path d="M105.27,48.472l-1.559-4.549L88.807,58.827l-8.615-8.615l14.833-14.833l-4.742-1.475c-2.215-0.688-4.525-1.039-6.869-1.04
	c-12.742,0-23.109,10.367-23.109,23.109c0,2.383,0.358,4.714,1.066,6.953L35.204,89.092c-2.505,2.507-2.505,6.585,0.001,9.09
	l6.926,6.926c1.214,1.215,2.829,1.884,4.546,1.884s3.331-0.669,4.547-1.884L77.913,78.42c1.798,0.44,3.641,0.663,5.5,0.663
	c12.742,0,23.108-10.366,23.108-23.108C106.521,53.42,106.101,50.896,105.27,48.472z M83.413,73.083
	c-1.846,0-3.67-0.297-5.422-0.881l-1.759-0.587l-29.25,29.249c-0.21,0.208-0.399,0.211-0.609,0.001l-6.926-6.926
	c-0.167-0.167-0.167-0.439,0-0.606l28.938-28.937l-0.773-1.855c-0.868-2.081-1.308-4.291-1.308-6.568
	c0-9.313,7.479-16.912,16.746-17.105L71.705,50.212l17.102,17.1l11.711-11.711c0.003,0.125,0.004,0.249,0.004,0.374
	C100.521,65.408,92.847,73.083,83.413,73.083z"/>
</svg>
